<?xml version="1.0" encoding="UTF-8"?>
<!DOCTYPE svg PUBLIC "-//W3C//DTD SVG 1.1//EN" "http://www.w3.org/Graphics/SVG/1.1/DTD/svg11.dtd">
<!-- Creator: CorelDRAW 2017 -->
<svg xmlns="http://www.w3.org/2000/svg" xml:space="preserve" width="397px" height="852px" version="1.1" style="shape-rendering:geometricPrecision; text-rendering:geometricPrecision; image-rendering:optimizeQuality; fill-rule:evenodd; clip-rule:evenodd"
viewBox="0 0 247.04 529.84"
 xmlns:xlink="http://www.w3.org/1999/xlink">
 <defs>
  <style type="text/css">
   <![CDATA[
    .fil1 {fill:white}
    .fil0 {fill:white;fill-rule:nonzero}
   ]]>
  </style>
 </defs>
 <g id="Layer_x0020_1">
  <metadata id="CorelCorpID_0Corel-Layer"/>
  <path class="fil0" d="M29.62 495.25c-19.91,0 -26.2,5.08 -26.2,17.18l0 14.75c0.81,1.29 3.23,2.66 6.21,2.66 3.47,0 6.61,-1.29 8.22,-2.66 -1.37,0.24 -3.54,0.08 -3.54,-2.17l0 -4.28 44.58 0 0 -9.84c0,-11.04 -11.69,-15.64 -29.27,-15.64zm15.79 -148.72c-7.4,0 -9.96,3.79 -9.96,8.44l5.22 2.65c0,-1.99 2.18,-5.02 5.12,-5.02 5.02,0 10.42,2.46 10.42,6.73 0,2.37 -2.08,3.98 -6.25,3.98 -4.74,0 -6.07,-0.57 -10.52,-2.75 -12.61,-6.26 -24.27,-9.1 -35.27,-9.1 -2.75,0 -4.17,0.85 -4.17,2.66 0,1.89 4.93,5.68 11.94,9.19 7.11,3.51 20.39,5.4 33.56,5.4 7.59,0 19.72,-0.28 19.72,-8.72 0,-8.34 -9.95,-13.46 -19.81,-13.46zm-34.13 10.71c7.02,-1.23 18.3,3.51 22.85,5.79 -5.22,0 -19.82,-2.56 -22.85,-5.79zm33.27 -41.42c-7.39,0 -10.33,3.32 -10.33,7.96l5.59 2.84c0,-1.99 2.18,-5.02 5.12,-5.02 5.03,0 11.28,3.6 11.28,9.01 0,2.37 -1.32,3.6 -3.41,3.6 -10.33,0 -13.27,-5.22 -14.41,-8.06l-5.88 3.13c3.99,6.73 11.19,12.13 20.86,12.13 6.45,0 11.85,-2.94 11.85,-9.19 0,-9.67 -10.81,-16.4 -20.67,-16.4zm20.67 -17.54l0 -18.67c0,-5.88 -7.02,-7.4 -12.51,-8.35 1.8,1.52 3.5,4.08 3.5,6.16l0 24.27c0,3.23 -2.46,5.79 -6.16,5.79 -4.17,0 -10.24,-2.66 -10.24,-6.45 0,-2.65 3.99,-4.36 6.64,-4.74l-5.02 -5.88c-5.31,0 -7.68,3.04 -7.68,7.3 0,7.49 5.59,14.6 16.21,14.6 10.05,0 15.26,-6.73 15.26,-14.03zm-12.51 -130.53c1.8,1.51 3.5,4.07 3.5,6.16l0 48.82c0,3.79 -2.27,7.2 -6.06,7.68l-11.66 1.51c-1.52,0.19 -2.47,1.33 -2.47,2.94 0,1.23 1.14,2.85 2.37,4.08 3.41,3.32 6.07,5.4 8.82,8.53l-11.09 0c-1.52,0 -2.47,1.33 -2.47,2.94 0,1.23 0.95,3.03 2.37,4.07l11 8.63 -47.02 -0.76 7.11 6.64 56.31 -0.57c3.13,0 1.99,-2.56 0.95,-3.32l-15.27 -11.56 15.55 -1.14c1.04,-0.1 0.85,-1.99 0,-2.66l-15.83 -12.98 0 -0.19c7.68,0 16.4,-3.89 16.4,-14.41l0 -46.07c0,-5.88 -7.02,-7.4 -12.51,-8.34zm-14.79 23.41l-3.89 3.89 3.89 3.88 3.88 -3.88 -3.88 -3.89zm0 10.43l-3.89 3.89 3.89 3.88 3.88 -3.88 -3.88 -3.89zm6.63 -61.14c-7.39,0 -10.33,3.31 -10.33,7.96l5.59 2.84c0,-1.99 2.18,-5.02 5.12,-5.02 5.03,0 11.28,3.6 11.28,9 0,2.37 -1.32,3.61 -3.41,3.61 -10.33,0 -13.27,-5.22 -14.41,-8.06l-5.88 3.13c3.99,6.73 11.19,12.13 20.86,12.13 6.45,0 11.85,-2.94 11.85,-9.2 0,-9.66 -10.81,-16.39 -20.67,-16.39zm8.16 -76.79c1.8,1.52 3.5,4.08 3.5,6.16l0 46.93c0,3.79 -4.45,6.92 -7.48,8.53 -5.22,-4.74 -9.29,-11.28 -9.29,-14.89 0,-2.65 1.13,-3.03 2.08,-3.69 -3.98,-1.14 -7.58,0.09 -7.58,3.79 0,5.02 5.97,15.17 11.56,19.53l-45.5 -0.29 6.92 6.54 58.3 -0.85 0 -2.75c-4.74,-0.76 -7.49,-0.66 -10.62,-3.13 2.18,-1.23 10.62,-6.63 10.62,-17.15l0 -40.39c0,-5.87 -7.02,-7.39 -12.51,-8.34zm-14.79 15.83l-3.89 3.89 3.89 3.88 3.88 -3.88 -3.88 -3.89zm0 10.43l-3.89 3.89 3.89 3.88 3.88 -3.88 -3.88 -3.89zm14.79 -87.97c1.8,1.51 3.5,4.07 3.5,6.16l0 17.44c0,3.79 -2.18,7.59 -6.16,7.59l-13.08 0 0 0.28 4.93 4.74 -5.12 5.31c3.22,9.86 9.76,17.06 22.18,17.06 4.27,0 6.26,-2.37 6.26,-5.78 0,-7.02 -5.02,-13.37 -9.67,-16.02l0 -0.19c5.59,-2.37 9.67,-3.98 9.67,-14.5l0 -13.75c0,-5.88 -7.02,-7.39 -12.51,-8.34zm-8.44 37.44c4.55,2.18 11.09,9.29 11.09,12.42 0,0.95 -0.19,1.71 -1.14,1.71 -3.03,0 -8.81,-7.59 -9.95,-14.13zm-13.84 462.72c8.39,0 17.5,2.09 17.5,11.28l-33.62 0 0 -2.82c0,-4.67 3.54,-8.46 16.12,-8.46zm23.79 -20.96l15.16 0c2.58,0 4.43,1.86 4.43,5.08l0 7.02c0,1.77 -1.45,3.95 -2.98,5.24 4.68,-0.81 10.64,-2.1 10.64,-7.1l0 -4.67c0,-8.95 -4.35,-9.84 -9.75,-9.84l-38.39 0 3.23 3.47c6.29,1.05 13.87,0.88 13.87,7.82 -5.89,0.24 -13.63,2.58 -16.77,6.29l0.24 0c4.27,-2.02 11.45,-1.7 17.01,-1.7 4.52,0 7.98,-0.24 7.98,-2.25 0,-2.58 -1.77,-7.42 -4.67,-9.36zm-7.34 -47.8c0,0 3.71,1.77 3.71,3.79 0,1.29 -0.97,2.82 -2.42,2.82l-15.24 0 2.26 2.91c8.47,2.17 14.11,5.4 14.11,10.4l-16.37 0 2.26 2.9c8.47,2.18 14.11,5.4 14.11,10.4 -1.29,1.37 -3.95,1.78 -6.77,1.78 -2.58,0 -5.33,-0.41 -7.34,-0.81l2.5 3.79c2.74,0.81 10.88,1.45 15.72,1.45 3.87,0 5.48,-1.29 5.48,-4.19 0,-4.2 -4.67,-9.68 -8.14,-10.81l0 -0.16c3.07,-0.16 8.14,-0.4 8.14,-4.03 0,-3.87 -3.54,-8.14 -7.01,-9.27l0 -0.24c2.5,-0.09 7.01,-2.02 7.01,-4.6 0,-5.32 -5.96,-7.34 -12.01,-6.13zm1.37 -52.96c1.53,1.29 2.99,3.47 2.99,5.24l0 14.84c0,3.22 -1.86,6.45 -5.25,6.45l-11.12 0 0 0.24 4.19 4.03 -4.35 4.52c2.74,8.38 8.3,14.51 18.86,14.51 3.63,0 5.32,-2.02 5.32,-4.92 0,-5.97 -4.27,-11.37 -8.22,-13.63l0 -0.16c4.76,-2.01 8.22,-3.38 8.22,-12.33l0 -11.7c0,-5 -5.96,-6.29 -10.64,-7.09zm-7.18 31.85c3.88,1.85 9.44,7.9 9.44,10.56 0,0.81 -0.16,1.45 -0.97,1.45 -2.58,0 -7.5,-6.45 -8.47,-12.01z"/>
  <path class="fil1" d="M67.58 0l24.43 0.61c12.28,1.73 15.5,13.77 14.72,23.55 -0.94,11.91 -2.55,19.42 -14.96,21.66 -5.7,2.76 -9.2,8.59 -8.74,19.94 3.9,4.52 6.21,4.66 -2.17,12.82l-0.35 4.45c-0.9,2.82 35.87,3.33 53.8,4.99 5.53,0.4 10.56,0.83 14.16,1.88 5.3,1.42 5.02,6.97 -0.61,6.87 -10.02,19.83 -20.81,31.35 -32.78,30.11 -11.04,-0.92 -21.91,0.13 -32.63,2.78 -0.36,14.3 -4.49,27.26 -6.67,40.95 -0.59,10.09 1.74,18.27 6.65,24.8 12.66,17 2.08,25.71 -1.49,44.98 -3.51,20.36 -1.51,39.69 10.54,57.13l7.8 -9.96c1.78,-7.62 3.17,-7.66 7.71,-7.13 13.9,-13.68 22.43,-23.01 36.33,-36.68 3.16,-3.78 7.01,-3.88 9.42,-2.77 75.83,-55.75 110.52,56.04 87.06,128.19 -14.36,48.58 -46.76,83.19 -91.9,108.04 6.75,6.98 20.07,7.39 30.1,11.09 16.2,5.4 13.19,19.43 -3.91,19.86l-49.15 2.5c-2.87,6.11 -10.4,6.78 -21.05,3.82 -4,5.63 -12.43,0.68 -18.46,1.72 -6.26,1.09 -12.06,2.78 -17.85,0.05l0 -516.25zm33.58 316.81c-1.61,-2.69 -3.94,-6.93 -3.6,-8.32 0.73,-2.9 5.47,-7.41 10.91,-10.77 10.14,-4.62 0.85,-5.83 7.49,-10.56 61.83,-32.33 36.01,-27.27 48.49,-33.1 11.84,-5.63 2.07,-6.71 11.36,-11.13 58.65,-13.93 64.16,71.86 55.08,111.57 -14.18,64.2 -48.02,95.81 -106.83,122.63l-2.65 -14.25c0.21,-11.11 -10.75,-9.21 -8.1,-20.2 -0.45,-5.58 -2.61,-10.71 -7.91,-15 -5.02,-4.5 -2.2,-9.57 -3.85,-12.74 -3.55,-6.8 -8.1,-9.91 -9.14,-17.43 -2.19,-18 -1.88,-36.22 -0.19,-54.55l9.51 -2.19c6.9,-1.28 5.21,-14.53 -0.57,-23.96z"/>
 </g>
</svg>
