<svg id="Layer_3" enable-background="new 0 0 64 64" height="512" viewBox="0 0 64 64" width="512" xmlns="http://www.w3.org/2000/svg"><g><path d="m62 55h-16v-2.721c7.498-2.174 13-9.09 13-17.279v-11c0-.553-.448-1-1-1h-9.654l4.911-4.901h2.55c.265 0 .519-.105.707-.292l2.964-2.958c.982-.98 1.522-2.282 1.522-3.667 0-1.384-.541-2.686-1.521-3.664-2.023-2.019-5.317-2.02-7.341 0l-2.964 2.957c-.188.188-.294.442-.294.708v2.543l-9.294 9.274h-33.586c-.552 0-1 .447-1 1v11c0 8.189 5.502 15.105 13 17.279v2.721h-16c-.552 0-1 .447-1 1v6c0 .553.448 1 1 1h60c.552 0 1-.447 1-1v-6c0-.553-.448-1-1-1zm-51-23.586 3.586 3.586h-7.172zm-4 1.172v-1.586h1.586zm6.414-1.586h7.172l-3.586 3.586zm9.586.414 3.586 3.586h-7.172zm2.414-.414h7.172l-3.586 3.586zm9.586.414 3.586 3.586h-7.172zm2.414-.414h7.172l-3.586 3.586zm9.586.414 3.586 3.586h-7.172zm2.414-.414h7.172l-3.586 3.586zm7.586 2.414v1.586h-1.586zm-6.413-18.565c.188-.188.293-.442.293-.708v-2.543l2.67-2.664c1.244-1.243 3.269-1.242 4.516 0 .602.6.934 1.399.934 2.249s-.332 1.648-.934 2.25l-2.671 2.666h-2.55c-.265 0-.519.105-.707.292l-6.624 6.609h-3.096zm6.413 10.151v4h-50v-4zm-49.861 12h49.722c-.989 7.88-7.717 14-15.861 14h-18c-8.144 0-14.872-6.12-15.861-14zm12.861 15.729c.978.165 1.976.271 3 .271h18c1.024 0 2.022-.106 3-.271v2.271h-24zm41 8.271h-58v-4h58z"/><path d="m31.585 8c.268.268.415.622.415 1s-.147.732-.414 1l-1.293 1.293 1.414 1.414 1.293-1.293c.645-.646 1-1.503 1-2.414s-.355-1.769-1-2.414l-.585-.586c-.268-.268-.415-.622-.415-1s.147-.732.414-1l1.293-1.293-1.414-1.414-1.293 1.293c-.645.645-1 1.503-1 2.414s.355 1.769 1 2.414z"/><path d="m37.585 10c.268.268.415.622.415 1s-.147.732-.414 1l-1.293 1.293 1.414 1.414 1.293-1.293c.645-.646 1-1.503 1-2.414s-.355-1.769-1-2.414l-.585-.586c-.268-.268-.415-.622-.415-1s.147-.732.414-1l1.293-1.293-1.414-1.414-1.293 1.293c-.645.645-1 1.503-1 2.414s.355 1.769 1 2.414z"/><path d="m25.585 10c.268.268.415.622.415 1s-.147.732-.414 1l-1.293 1.293 1.414 1.414 1.293-1.293c.645-.646 1-1.503 1-2.414s-.355-1.769-1-2.414l-.585-.586c-.268-.268-.415-.622-.415-1s.147-.732.414-1l1.293-1.293-1.414-1.414-1.293 1.293c-.645.645-1 1.503-1 2.414s.355 1.769 1 2.414z"/></g></svg>